<svg id="Layer_1" data-name="Layer 1" xmlns="http://www.w3.org/2000/svg" viewBox="0 0 496 496"><defs><style>.cls-1{fill:#ee1e3a;opacity:0.4;isolation:isolate;}.cls-2{fill:#83c881;}.cls-3{fill:#dcf7e8;}.cls-4{fill:#95cb64;}.cls-5{fill:#7a67ff;}.cls-6{fill:#5dab46;}.cls-7{fill:#ef4733;}.cls-8{fill:#b25da4;}.cls-9{fill:#e8f500;}</style></defs><title>healthSenseAppIcon</title><path class="cls-1" d="M248,8C111,8,0,119,0,256S111,504,248,504,496,393,496,256,385,8,248,8ZM371.5,280.3,260.9,394.5a17.88,17.88,0,0,1-25.28.62h0c-.21-.2-.42-.41-.62-.62L124.5,280.3c-32.1-33.2-30.2-88.2,5.7-118.8,31.3-26.7,77.9-21.9,106.6,7.7l11.3,11.6,11.3-11.6c28.7-29.6,75.3-34.4,106.6-7.7C401.8,192.1,403.7,247.1,371.5,280.3Z" transform="translate(0 -8)"/><circle class="cls-2" cx="248.61" cy="248" r="210"/><circle class="cls-3" cx="248" cy="246" r="172"/><circle class="cls-4" cx="248" cy="246" r="43"/><path class="cls-5" d="M275.7,145.94l-24.82,27a3.87,3.87,0,0,1-5.67.15h0l-.14-.15-24.79-27c-7.2-7.85-6.78-20.85,1.28-28.09,7-6.31,17.48-5.17,23.92,1.82l2.53,2.75,2.54-2.75c6.44-7,16.89-8.13,23.92-1.82C282.5,125.09,282.93,138.09,275.7,145.94Z" transform="translate(0 -8)"/><path class="cls-6" d="M276.31,258l-24.82,27a3.86,3.86,0,0,1-5.67.15h0l-.14-.15-24.79-27c-7.2-7.85-6.78-20.85,1.28-28.09,7-6.31,17.48-5.17,23.92,1.83l2.53,2.74,2.54-2.74c6.44-7,16.89-8.14,23.92-1.83C283.11,237.11,283.53,250.11,276.31,258Z" transform="translate(0 -8)"/><path class="cls-7" d="M276.31,381.82l-24.82,27a3.87,3.87,0,0,1-5.67.14h0a1.85,1.85,0,0,1-.14-.14l-24.79-27c-7.2-7.85-6.78-20.85,1.28-28.08,7-6.31,17.48-5.18,23.92,1.82l2.53,2.74,2.54-2.74c6.44-7,16.89-8.13,23.92-1.82C283.11,361,283.53,374,276.31,381.82Z" transform="translate(0 -8)"/><path class="cls-8" d="M380.7,258l-24.82,27a3.86,3.86,0,0,1-5.67.15h0l-.14-.15-24.79-27c-7.2-7.85-6.78-20.85,1.28-28.09,7-6.31,17.48-5.17,23.92,1.83l2.53,2.74,2.54-2.74c6.44-7,16.89-8.14,23.92-1.83C387.5,237.11,387.93,250.11,380.7,258Z" transform="translate(0 -8)"/><path class="cls-9" d="M168.7,258l-24.82,27a3.86,3.86,0,0,1-5.67.15h0l-.14-.15-24.79-27c-7.2-7.85-6.78-20.85,1.28-28.09,7-6.31,17.48-5.17,23.92,1.83l2.53,2.74,2.54-2.74c6.44-7,16.89-8.14,23.92-1.83C175.5,237.11,175.92,250.11,168.7,258Z" transform="translate(0 -8)"/></svg>